<svg width="114" height="20" viewBox="0 0 114 20" fill="none" xmlns="http://www.w3.org/2000/svg">
<path d="M15.5456 7.43466H12.3581C12.2672 6.91193 12.0996 6.44886 11.8553 6.04545C11.611 5.63636 11.307 5.28977 10.9434 5.00568C10.5797 4.72159 10.1649 4.50852 9.69904 4.36648C9.23881 4.21875 8.74165 4.14489 8.20756 4.14489C7.2587 4.14489 6.41779 4.38352 5.68483 4.86079C4.95188 5.33239 4.37802 6.02557 3.96324 6.94034C3.54847 7.84943 3.34108 8.96023 3.34108 10.2727C3.34108 11.608 3.54847 12.733 3.96324 13.6477C4.3837 14.5568 4.95756 15.2443 5.68483 15.7102C6.41779 16.1705 7.25586 16.4006 8.19904 16.4006C8.72177 16.4006 9.2104 16.3324 9.66495 16.196C10.1252 16.054 10.5371 15.8466 10.9007 15.5739C11.2701 15.3011 11.5797 14.9659 11.8297 14.5682C12.0854 14.1705 12.2615 13.7159 12.3581 13.2045L15.5456 13.2216C15.4263 14.0511 15.1678 14.8295 14.7701 15.5568C14.378 16.2841 13.8638 16.9261 13.2274 17.483C12.5911 18.0341 11.8468 18.4659 10.9945 18.7784C10.1422 19.0852 9.1962 19.2386 8.15643 19.2386C6.62233 19.2386 5.25302 18.8835 4.04847 18.1733C2.84392 17.4631 1.89506 16.4375 1.20188 15.0966C0.508698 13.7557 0.162107 12.1477 0.162107 10.2727C0.162107 8.39205 0.511538 6.78409 1.2104 5.44886C1.90927 4.10795 2.86097 3.08239 4.06552 2.37216C5.27006 1.66193 6.6337 1.30682 8.15643 1.30682C9.12802 1.30682 10.0314 1.44318 10.8667 1.71591C11.7019 1.98864 12.4462 2.3892 13.0996 2.91761C13.753 3.44034 14.2899 4.08239 14.7104 4.84375C15.1365 5.59943 15.4149 6.46307 15.5456 7.43466ZM21.3901 1.54545V19H18.3049V1.54545H21.3901ZM30.3581 19.2557C29.0456 19.2557 27.9121 18.983 26.9576 18.4375C26.0087 17.8864 25.2786 17.108 24.7672 16.1023C24.2559 15.0909 24.0002 13.9006 24.0002 12.5312C24.0002 11.1847 24.2559 10.0028 24.7672 8.9858C25.2843 7.96307 26.0059 7.16761 26.932 6.59943C27.8581 6.02557 28.9462 5.73864 30.1962 5.73864C31.003 5.73864 31.7644 5.86932 32.4803 6.13068C33.2019 6.38636 33.8382 6.78409 34.3894 7.32386C34.9462 7.86364 35.3837 8.55114 35.7019 9.38636C36.0201 10.2159 36.1792 11.2045 36.1792 12.3523V13.2983H25.449V11.2188H33.2218C33.2161 10.6278 33.0882 10.1023 32.8382 9.64205C32.5882 9.17614 32.2388 8.80966 31.7899 8.54261C31.3468 8.27557 30.8297 8.14205 30.2388 8.14205C29.6081 8.14205 29.0542 8.29545 28.5769 8.60227C28.0996 8.90341 27.7274 9.30114 27.4604 9.79545C27.199 10.2841 27.0655 10.821 27.0598 11.4062V13.2216C27.0598 13.983 27.199 14.6364 27.4774 15.1818C27.7559 15.7216 28.1451 16.1364 28.6451 16.4261C29.1451 16.7102 29.7303 16.8523 30.4007 16.8523C30.8496 16.8523 31.2559 16.7898 31.6195 16.6648C31.9831 16.5341 32.2985 16.3438 32.5655 16.0938C32.8326 15.8438 33.0343 15.5341 33.1706 15.1648L36.0513 15.4886C35.8695 16.25 35.5229 16.9148 35.0115 17.483C34.5059 18.0455 33.8581 18.483 33.0684 18.7955C32.2786 19.1023 31.3752 19.2557 30.3581 19.2557ZM42.5563 19.2642C41.7267 19.2642 40.9796 19.1165 40.3148 18.821C39.6557 18.5199 39.133 18.0767 38.7466 17.4915C38.3659 16.9062 38.1756 16.1847 38.1756 15.3267C38.1756 14.5881 38.312 13.9773 38.5847 13.4943C38.8574 13.0114 39.2296 12.625 39.7012 12.3352C40.1728 12.0455 40.704 11.8267 41.2949 11.679C41.8915 11.5256 42.508 11.4148 43.1444 11.3466C43.9114 11.267 44.5336 11.196 45.0108 11.1335C45.4881 11.0653 45.8347 10.9631 46.0506 10.8267C46.2722 10.6847 46.383 10.4659 46.383 10.1705V10.1193C46.383 9.47727 46.1926 8.98011 45.812 8.62784C45.4313 8.27557 44.883 8.09943 44.1671 8.09943C43.4114 8.09943 42.812 8.2642 42.3688 8.59375C41.9313 8.9233 41.6358 9.3125 41.4824 9.76136L38.6017 9.35227C38.829 8.55682 39.204 7.89205 39.7267 7.35795C40.2495 6.81818 40.8887 6.41477 41.6444 6.14773C42.4 5.875 43.2353 5.73864 44.15 5.73864C44.7807 5.73864 45.4086 5.8125 46.0336 5.96023C46.6586 6.10795 47.2296 6.35227 47.7466 6.69318C48.2637 7.02841 48.6784 7.4858 48.9909 8.06534C49.3091 8.64489 49.4682 9.36932 49.4682 10.2386V19H46.5023V17.2017H46.4C46.2125 17.5653 45.9483 17.9062 45.6074 18.2244C45.2722 18.5369 44.8489 18.7898 44.3375 18.983C43.8319 19.1705 43.2381 19.2642 42.5563 19.2642ZM43.3574 16.9972C43.9767 16.9972 44.5137 16.875 44.9682 16.6307C45.4228 16.3807 45.7722 16.0511 46.0165 15.642C46.2665 15.233 46.3915 14.7869 46.3915 14.304V12.7614C46.2949 12.8409 46.1301 12.9148 45.8972 12.983C45.6699 13.0511 45.4142 13.1108 45.1301 13.1619C44.8461 13.2131 44.5648 13.2585 44.2864 13.2983C44.008 13.3381 43.7665 13.3722 43.562 13.4006C43.1017 13.4631 42.6898 13.5653 42.3262 13.7074C41.9625 13.8494 41.6756 14.0483 41.4654 14.304C41.2551 14.554 41.15 14.8778 41.15 15.2756C41.15 15.8438 41.3574 16.2727 41.7722 16.5625C42.187 16.8523 42.7154 16.9972 43.3574 16.9972ZM52.5705 19V5.90909H55.562V8.09091H55.6983C55.937 7.33523 56.3461 6.75284 56.9256 6.34375C57.5108 5.92898 58.1784 5.72159 58.9284 5.72159C59.0989 5.72159 59.2892 5.73011 59.4995 5.74716C59.7154 5.75852 59.8944 5.77841 60.0364 5.80682V8.64489C59.9057 8.59943 59.6983 8.55966 59.4142 8.52557C59.1358 8.4858 58.8659 8.46591 58.6046 8.46591C58.0421 8.46591 57.5364 8.58807 57.0875 8.83239C56.6444 9.07102 56.2949 9.40341 56.0392 9.82955C55.7836 10.2557 55.6557 10.7472 55.6557 11.304V19H52.5705ZM62.2225 19V1.54545H65.3844V16.3494H73.0719V19H62.2225ZM75.6799 19V5.90909H78.7651V19H75.6799ZM77.231 4.05114C76.7424 4.05114 76.3219 3.8892 75.9696 3.56534C75.6174 3.23579 75.4412 2.84091 75.4412 2.38068C75.4412 1.91477 75.6174 1.51989 75.9696 1.19602C76.3219 0.866477 76.7424 0.701704 77.231 0.701704C77.7253 0.701704 78.1458 0.866477 78.4924 1.19602C78.8446 1.51989 79.0208 1.91477 79.0208 2.38068C79.0208 2.84091 78.8446 3.23579 78.4924 3.56534C78.1458 3.8892 77.7253 4.05114 77.231 4.05114ZM85.0229 11.3295V19H81.9377V5.90909H84.8865V8.13352H85.0399C85.3411 7.40057 85.8212 6.81818 86.4803 6.38636C87.1451 5.95455 87.9661 5.73864 88.9434 5.73864C89.8468 5.73864 90.6337 5.93182 91.3042 6.31818C91.9803 6.70455 92.503 7.2642 92.8723 7.99716C93.2473 8.73011 93.432 9.61932 93.4263 10.6648V19H90.3411V11.142C90.3411 10.267 90.1138 9.58239 89.6593 9.08807C89.2104 8.59375 88.5882 8.34659 87.7928 8.34659C87.253 8.34659 86.7729 8.46591 86.3524 8.70455C85.9377 8.9375 85.611 9.27557 85.3723 9.71875C85.1394 10.1619 85.0229 10.6989 85.0229 11.3295ZM99.3752 14.892L99.3667 11.1676H99.861L104.566 5.90909H108.171L102.384 12.3523H101.744L99.3752 14.892ZM96.5627 19V1.54545H99.6479V19H96.5627ZM104.779 19L100.517 13.0426L102.597 10.8693L108.469 19H104.779Z" fill="#101828"/>
<path d="M112.127 19.1875C111.61 19.1875 111.167 19.0057 110.798 18.642C110.428 18.2784 110.247 17.8352 110.252 17.3125C110.247 16.8011 110.428 16.3636 110.798 16C111.167 15.6364 111.61 15.4545 112.127 15.4545C112.627 15.4545 113.062 15.6364 113.431 16C113.806 16.3636 113.997 16.8011 114.002 17.3125C113.997 17.6591 113.906 17.9744 113.73 18.2585C113.559 18.5426 113.332 18.7699 113.048 18.9403C112.769 19.1051 112.463 19.1875 112.127 19.1875Z" fill="#528BFF"/>
</svg>
